<?xml version="1.0" encoding="UTF-8"?> <svg xmlns="http://www.w3.org/2000/svg" width="54" height="57" viewBox="0 0 54 57" fill="none"><path d="M27.2363 2.50833C27.172 2.46601 27.0969 2.44291 27.0199 2.44173C26.943 2.44056 26.8672 2.46136 26.8016 2.50169C22.4066 5.1698 17.3237 16.4066 17.3219 25.2466C17.3155 26.8172 17.446 28.3854 17.712 29.9334C16.2281 31.1761 14.9655 32.6401 14.3101 34.3085C12.4747 39.0297 15.2851 43.749 16.6387 45.6345C16.7123 45.7382 16.8089 45.8235 16.921 45.8835C17.0331 45.9436 17.1576 45.9768 17.2847 45.9806C17.4118 45.9844 17.538 45.9587 17.6535 45.9054C17.769 45.8522 17.8705 45.7728 17.9502 45.6737L22.2882 40.2601C22.4733 40.0291 22.8169 40.0091 23.035 40.2092C23.3127 40.464 23.599 40.7093 23.8935 40.9447C24.194 41.1921 24.5716 41.3265 24.9608 41.3245L29.0332 41.3197C29.4223 41.3213 29.7998 41.1869 30.1004 40.9399C30.3927 40.7064 30.6769 40.4631 30.9525 40.2104C31.1705 40.0106 31.5139 40.0306 31.699 40.2613L36.0336 45.6659C36.1133 45.7649 36.2148 45.844 36.3303 45.8972C36.4458 45.9503 36.572 45.976 36.699 45.9722C36.8261 45.9684 36.9505 45.9353 37.0626 45.8753C37.1747 45.8154 37.2713 45.7302 37.345 45.6267C38.7023 43.7509 41.5193 39.0249 39.6754 34.3121C39.02 32.6437 37.7671 31.1833 36.2934 29.9437C36.5615 28.3934 36.6941 26.8228 36.6896 25.2496C36.7119 16.4024 31.7935 5.36515 27.2363 2.50833ZM27.0012 24.4103C26.1916 24.4105 25.4 24.1707 24.7267 23.721C24.0534 23.2714 23.5286 22.6322 23.2186 21.8842C22.9087 21.1362 22.8275 20.3132 22.9854 19.5191C23.1433 18.725 23.5331 17.9955 24.1056 17.423C24.6781 16.8505 25.4076 16.4607 26.2017 16.3028C26.9958 16.1449 27.8188 16.2261 28.5668 16.536C29.3148 16.846 29.954 17.3708 30.4036 18.0441C30.8533 18.7174 31.0932 19.5089 31.0929 20.3186C31.0933 20.856 30.9877 21.3883 30.7822 21.8849C30.5767 22.3815 30.2753 22.8327 29.8953 23.2127C29.5153 23.5927 29.0641 23.8941 28.5675 24.0996C28.0709 24.3051 27.5386 24.4107 27.0012 24.4103Z" stroke="#D23200" stroke-width="3"></path><path d="M30.3676 42.9315C30.3682 43.5929 29.9672 44.2519 29.4396 45.0002C28.2506 46.6776 25.7465 46.7048 24.555 44.9984C24.104 44.3508 23.6246 43.2902 23.6246 42.9284C23.6254 42.8501 23.6015 42.7736 23.5563 42.7096C23.511 42.6457 23.4468 42.5976 23.3727 42.5723C23.2986 42.5469 23.2184 42.5455 23.1435 42.5683C23.0686 42.5911 23.0028 42.637 22.9554 42.6993C22.2519 43.5989 21.8697 44.7079 21.8694 45.8498C21.8706 48.6861 27.0012 54.0844 27.0012 54.0844C27.0012 54.0844 32.1348 48.6831 32.1336 45.8468C32.1356 44.7035 31.7527 43.5929 31.0465 42.6939C30.8168 42.4195 30.3597 42.5763 30.3676 42.9315Z" stroke="#D23200" stroke-width="3"></path></svg> 