<?xml version="1.0" encoding="UTF-8"?> <svg xmlns="http://www.w3.org/2000/svg" width="52" height="52" viewBox="0 0 52 52" fill="none"><path d="M22.8931 49.4205L22.9078 49.4066L22.9221 49.3922L30.9925 41.3H44.4C46.0178 41.3 47.5694 40.6573 48.7134 39.5134C49.8573 38.3694 50.5 36.8178 50.5 35.2V7.6C50.5 5.98218 49.8573 4.43062 48.7134 3.28665C47.5694 2.14268 46.0178 1.5 44.4 1.5H7.6C5.98218 1.5 4.43062 2.14268 3.28665 3.28665L3.28665 3.28665C2.14268 4.43062 1.5 5.98218 1.5 7.6V35.2C1.5 36.8178 2.14268 38.3694 3.28665 39.5134C4.43062 40.6573 5.98218 41.3 7.6 41.3H15.3V46.7C15.3 47.7078 15.7004 48.6744 16.413 49.387C17.1256 50.0996 18.0922 50.5 19.1 50.5H20.25C21.2301 50.5 22.1696 50.1078 22.8931 49.4205ZM22.3365 13.5471L22.3365 13.5471L22.347 13.5401C23.268 12.9261 24.5814 12.55 26.437 12.55C28.3872 12.55 29.753 12.9859 30.652 13.6654C31.5141 14.3387 31.929 15.1834 31.929 16.34C31.929 16.967 31.7291 17.5434 31.2426 18.1667C30.7449 18.7819 30.0722 19.29 29.1951 19.6905L29.1302 19.7201L29.0684 19.7557C28.371 20.1581 27.6963 20.6786 27.2963 21.4342L27.2882 21.4496L27.2804 21.4652C27.163 21.6999 27.0686 21.9449 26.9955 22.2H25.5041C25.5109 22.1902 25.5175 22.1808 25.5241 22.1719C25.8741 21.7815 26.505 21.2471 27.5804 20.5823C28.3438 20.1642 28.9757 19.6207 29.4869 18.9592L29.519 18.9177L29.5481 18.8741C30.0341 18.1451 30.306 17.2806 30.306 16.34C30.306 15.3124 29.9796 14.3928 29.2301 13.6769C28.4335 12.8911 27.3677 12.655 26.437 12.655C25.5228 12.655 24.7136 12.9025 23.9898 13.4092L23.9233 13.4557L23.8622 13.5091C23.5163 13.8118 23.2483 14.1768 23.0624 14.587H21.4377C21.6299 14.159 21.9367 13.8087 22.3365 13.5471ZM26.8 29.1H25.2V27.5H26.8V29.1Z" stroke="#D23200" stroke-width="3"></path></svg> 