<?xml version="1.0" encoding="UTF-8"?> <svg xmlns="http://www.w3.org/2000/svg" width="56" height="66" viewBox="0 0 56 66" fill="none"><path d="M5.65763 45.6472L6.75897 46.6484L5.65763 45.6472C4.24219 47.2041 4.35693 49.6138 5.91392 51.0292C7.4709 52.4447 9.88054 52.3299 11.296 50.7729L16.6212 44.9151C17.8729 43.5383 18.7721 41.8786 19.2418 40.0781C19.6886 38.3652 21.2356 37.17 23.0058 37.17H23.952C24.4095 37.17 24.8594 37.2866 25.2593 37.5088C25.6656 37.7345 26.0065 38.0616 26.2489 38.4582L28.9858 42.9368C30.083 44.7322 32.4281 45.2983 34.2235 44.201C36.019 43.1038 36.5851 40.7588 35.4878 38.9633L32.7509 34.4848C31.8225 32.9654 30.5164 31.7124 28.9599 30.8477C28.2713 30.4651 27.544 30.1643 26.7927 29.949L27.2745 27.5403C29.1695 28.8551 31.4391 29.58 33.7923 29.58H36.8568C38.961 29.58 40.6668 27.8742 40.6668 25.77C40.6668 23.6658 38.961 21.96 36.8568 21.96H33.7923C32.6707 21.96 31.6061 21.4662 30.8816 20.6101C29.5597 19.0479 27.8428 17.8691 25.9099 17.1968L22.8807 16.1431C20.5303 15.3256 18.0014 15.1645 15.5662 15.6772C12.3613 16.3519 9.50476 18.1537 7.51529 20.7553L5.4503 23.4556C4.1721 25.1271 4.49093 27.5183 6.16242 28.7965C7.83391 30.0747 10.2251 29.7559 11.5033 28.0844L13.5683 25.384C13.8094 25.0688 14.0792 24.78 14.373 24.5207L11.6853 38.6927C11.515 39.0939 11.2779 39.4649 10.9829 39.7894L5.65763 45.6472Z" stroke="#D23200" stroke-width="3"></path><circle cx="25.9668" cy="7.95" r="6.45" stroke="#D23200" stroke-width="3"></circle><path d="M2 64H28.04V52.4266H54.4933" stroke="#D23200" stroke-width="3" stroke-linecap="round"></path></svg> 