<?xml version="1.0" encoding="UTF-8"?> <svg xmlns="http://www.w3.org/2000/svg" width="63" height="56" viewBox="0 0 63 56" fill="none"><path d="M35.5929 10.6943C35.5929 9.32327 34.482 8.2124 33.111 8.2124H30.2537C28.8808 8.2124 27.7699 9.32327 27.7699 10.6943C27.7699 11.8247 26.9954 12.7947 25.9413 13.2093C25.775 13.2758 25.6088 13.3463 25.4465 13.4167C24.408 13.8665 23.1739 13.7296 22.372 12.9297C21.9066 12.4646 21.2756 12.2034 20.6177 12.2034C19.9598 12.2034 19.3288 12.4646 18.8634 12.9297L16.8411 14.9519C16.3761 15.4173 16.1149 16.0483 16.1149 16.7062C16.1149 17.3642 16.3761 17.9952 16.8411 18.4605C17.643 19.2624 17.7799 20.4945 17.3262 21.535C17.2549 21.6987 17.1864 21.8637 17.1208 22.0298C16.7062 23.0839 15.7361 23.8584 14.6057 23.8584C13.2347 23.8584 12.1239 24.9693 12.1239 26.3403V29.1996C12.1239 30.5706 13.2347 31.6814 14.6057 31.6814C15.7361 31.6814 16.7062 32.4559 17.1208 33.5101C17.1873 33.6763 17.2577 33.8425 17.3262 34.0049C17.7779 35.0434 17.641 36.2774 16.8411 37.0793C16.3761 37.5447 16.1149 38.1757 16.1149 38.8336C16.1149 39.4915 16.3761 40.1225 16.8411 40.5879L18.8634 42.6102C19.3288 43.0752 19.9598 43.3365 20.6177 43.3365C21.2756 43.3365 21.9066 43.0752 22.372 42.6102C23.1739 41.8083 24.406 41.6714 25.4465 42.1232C25.6088 42.1956 25.775 42.264 25.9413 42.3305C26.9954 42.7451 27.7699 43.7152 27.7699 44.8456C27.7699 46.2166 28.8808 47.3274 30.2517 47.3274H33.111C34.482 47.3274 35.5929 46.2166 35.5929 44.8456C35.5929 43.7152 36.3674 42.7451 37.4215 42.3285C37.5878 42.264 37.754 42.1956 37.9163 42.1251C38.9548 41.6714 40.1889 41.8103 40.9888 42.6102C41.2193 42.8407 41.4929 43.0236 41.7941 43.1484C42.0953 43.2732 42.4181 43.3374 42.7441 43.3374C43.0701 43.3374 43.3929 43.2732 43.6941 43.1484C43.9953 43.0236 44.2689 42.8407 44.4994 42.6102L46.5216 40.5879C46.9867 40.1225 47.2479 39.4915 47.2479 38.8336C47.2479 38.1757 46.9867 37.5447 46.5216 37.0793C45.7198 36.2774 45.5829 35.0453 46.0347 34.0049C46.107 33.8425 46.1755 33.6763 46.242 33.5101C46.6566 32.4559 47.6266 31.6814 48.7571 31.6814C50.128 31.6814 51.2389 30.5706 51.2389 29.1996V26.3422C51.2389 24.9712 50.128 23.8604 48.7571 23.8604C47.6266 23.8604 46.6566 23.0859 46.24 22.0317C46.1745 21.8656 46.106 21.7007 46.0347 21.5369C45.5848 20.4984 45.7217 19.2644 46.5216 18.4625C46.9867 17.9971 47.2479 17.3661 47.2479 16.7082C47.2479 16.0503 46.9867 15.4193 46.5216 14.9539L44.4994 12.9316C44.034 12.4666 43.403 12.2053 42.7451 12.2053C42.0872 12.2053 41.4562 12.4666 40.9908 12.9316C40.1889 13.7335 38.9568 13.8704 37.9163 13.4186C37.7526 13.3467 37.5876 13.2775 37.4215 13.2113C36.3674 12.7947 35.5929 11.8247 35.5929 10.6962V10.6943Z" stroke="#D23200" stroke-width="2.76106"></path><path d="M39.7345 27.7699C39.7345 29.8447 38.9103 31.8345 37.4432 33.3016C35.9761 34.7687 33.9863 35.5929 31.9115 35.5929C29.8367 35.5929 27.8469 34.7687 26.3798 33.3016C24.9127 31.8345 24.0885 29.8447 24.0885 27.7699C24.0885 25.6951 24.9127 23.7053 26.3798 22.2382C27.8469 20.7711 29.8367 19.9469 31.9115 19.9469C33.9863 19.9469 35.9761 20.7711 37.4432 22.2382C38.9103 23.7053 39.7345 25.6951 39.7345 27.7699V27.7699Z" stroke="#D23200" stroke-width="2.76106"></path><circle cx="18.1062" cy="4.30089" r="2.30088" stroke="#D23200" stroke-width="2.76106"></circle><circle cx="18.1062" cy="51.6991" r="2.30088" stroke="#D23200" stroke-width="2.76106"></circle><circle cx="4.30089" cy="27.7699" r="2.30088" stroke="#D23200" stroke-width="2.76106"></circle><circle cx="59.0619" cy="27.7699" r="2.30088" stroke="#D23200" stroke-width="2.76106"></circle><circle cx="45.2566" cy="4.30089" r="2.30088" stroke="#D23200" stroke-width="2.76106"></circle><circle cx="45.2566" cy="51.6991" r="2.30088" stroke="#D23200" stroke-width="2.76106"></circle><path fill-rule="evenodd" clip-rule="evenodd" d="M19.9204 2.83655L43.521 2.83655C43.1924 3.23438 42.995 3.74455 42.995 4.30082C42.995 4.78183 43.1426 5.22837 43.395 5.59761L20.0464 5.59761C20.2988 5.22837 20.4464 4.78183 20.4464 4.30082C20.4464 3.74455 20.249 3.23438 19.9204 2.83655ZM56.953 26.9439L45.2075 6.60004C45.2368 6.60115 45.2663 6.60171 45.2959 6.60171C46.316 6.60171 47.1811 5.93783 47.4826 5.01854L59.2943 25.4769C59.2306 25.4717 59.1662 25.469 59.1012 25.469C58.1216 25.469 57.285 26.0812 56.953 26.9439ZM59.5632 30.0243C59.414 30.0548 59.2595 30.0707 59.1012 30.0707C58.215 30.0707 57.4458 29.5697 57.0614 28.8354L45.1881 49.4007C45.2238 49.399 45.2598 49.3982 45.2959 49.3982C46.3083 49.3982 47.168 50.0521 47.4757 50.9605L59.5632 30.0243ZM43.4944 53.1305C43.1818 52.7376 42.995 52.2402 42.995 51.6991C42.995 51.2037 43.1516 50.7449 43.4179 50.3694H20.0235C20.2898 50.7449 20.4464 51.2037 20.4464 51.6991C20.4464 52.2402 20.2596 52.7376 19.947 53.1305L43.4944 53.1305ZM15.9537 50.9968L3.8407 30.0164C4.00151 30.052 4.16865 30.0707 4.34017 30.0707C5.21443 30.0707 5.9748 29.5831 6.36418 28.865L18.2197 49.3994C18.195 49.3986 18.1703 49.3982 18.1455 49.3982C17.1197 49.3982 16.2506 50.0695 15.9537 50.9968ZM15.9471 4.98185L4.11239 25.4801C4.18732 25.4727 4.2633 25.469 4.34017 25.469C5.30693 25.469 6.13444 26.0652 6.47502 26.91L18.2004 6.60107C18.1821 6.60149 18.1638 6.60171 18.1455 6.60171C17.1118 6.60171 16.2374 5.92011 15.9471 4.98185Z" fill="#D23200"></path></svg> 