<?xml version="1.0" encoding="UTF-8"?> <svg xmlns="http://www.w3.org/2000/svg" width="54" height="54" viewBox="0 0 54 54" fill="none"><path d="M30.2946 12.4238C30.2946 11.269 29.3589 10.3334 28.2042 10.3334H25.7975C24.6411 10.3334 23.7054 11.269 23.7054 12.4238C23.7054 13.3759 23.0531 14.193 22.1652 14.5422C22.0252 14.5982 21.8852 14.6575 21.7484 14.7168C20.8737 15.0957 19.8343 14.9804 19.1589 14.3066C18.7669 13.9149 18.2354 13.6949 17.6813 13.6949C17.1271 13.6949 16.5957 13.9149 16.2037 14.3066L14.5004 16.0099C14.1087 16.4019 13.8886 16.9334 13.8886 17.4875C13.8886 18.0417 14.1087 18.5732 14.5004 18.9652C15.1758 19.6405 15.2911 20.6783 14.9089 21.5547C14.8489 21.6926 14.7912 21.8315 14.7359 21.9715C14.3867 22.8593 13.5697 23.5117 12.6175 23.5117C11.4628 23.5117 10.5271 24.4473 10.5271 25.6021V28.0104C10.5271 29.1652 11.4628 30.1008 12.6175 30.1008C13.5697 30.1008 14.3867 30.7531 14.7359 31.641C14.792 31.781 14.8513 31.9211 14.9089 32.0578C15.2894 32.9325 15.1741 33.9719 14.5004 34.6473C14.1087 35.0393 13.8886 35.5708 13.8886 36.1249C13.8886 36.6791 14.1087 37.2106 14.5004 37.6026L16.2037 39.3059C16.5957 39.6976 17.1271 39.9176 17.6813 39.9176C18.2354 39.9176 18.7669 39.6976 19.1589 39.3059C19.8343 38.6305 20.8721 38.5152 21.7484 38.8957C21.8852 38.9566 22.0252 39.0143 22.1652 39.0703C23.0531 39.4195 23.7054 40.2366 23.7054 41.1887C23.7054 42.3435 24.6411 43.2791 25.7958 43.2791H28.2042C29.3589 43.2791 30.2946 42.3435 30.2946 41.1887C30.2946 40.2366 30.9469 39.4195 31.8348 39.0686C31.9748 39.0143 32.1148 38.9566 32.2515 38.8973C33.1263 38.5152 34.1657 38.6321 34.8394 39.3059C35.0336 39.5001 35.264 39.6541 35.5177 39.7592C35.7714 39.8643 36.0433 39.9184 36.3179 39.9184C36.5925 39.9184 36.8644 39.8643 37.118 39.7592C37.3717 39.6541 37.6022 39.5001 37.7963 39.3059L39.4996 37.6026C39.8913 37.2106 40.1114 36.6791 40.1114 36.1249C40.1114 35.5708 39.8913 35.0393 39.4996 34.6473C38.8242 33.9719 38.7089 32.9341 39.0894 32.0578C39.1504 31.9211 39.208 31.781 39.264 31.641C39.6133 30.7531 40.4303 30.1008 41.3825 30.1008C42.5372 30.1008 43.4729 29.1652 43.4729 28.0104V25.6037C43.4729 24.449 42.5372 23.5133 41.3825 23.5133C40.4303 23.5133 39.6133 22.861 39.2624 21.9731C39.2072 21.8332 39.1495 21.6942 39.0894 21.5563C38.7106 20.6816 38.8259 19.6422 39.4996 18.9668C39.8913 18.5748 40.1114 18.0433 40.1114 17.4892C40.1114 16.935 39.8913 16.4036 39.4996 16.0116L37.7963 14.3083C37.4043 13.9166 36.8729 13.6965 36.3187 13.6965C35.7645 13.6965 35.2331 13.9166 34.8411 14.3083C34.1657 14.9837 33.1279 15.099 32.2515 14.7185C32.1136 14.6578 31.9747 14.5996 31.8348 14.5438C30.9469 14.193 30.2946 13.3759 30.2946 12.4254V12.4238Z" stroke="#D23200" stroke-width="3"></path><path d="M33.7829 26.8062C33.7829 28.5537 33.0887 30.2297 31.853 31.4654C30.6173 32.7011 28.9413 33.3953 27.1938 33.3953C25.4462 33.3953 23.7703 32.7011 22.5346 31.4654C21.2989 30.2297 20.6046 28.5537 20.6046 26.8062C20.6046 25.0586 21.2989 23.3827 22.5346 22.147C23.7703 20.9113 25.4462 20.217 27.1938 20.217C28.9413 20.217 30.6173 20.9113 31.853 22.147C33.0887 23.3827 33.7829 25.0586 33.7829 26.8062V26.8062Z" stroke="#D23200" stroke-width="3"></path><circle cx="7.62017" cy="46.3799" r="2.63445" stroke="#D23200" stroke-width="3"></circle><circle cx="46.3798" cy="46.3799" r="2.63445" stroke="#D23200" stroke-width="3"></circle><path d="M7.62014 40.7597L7.62015 43.5698" stroke="#D23200" stroke-width="3" stroke-linecap="round"></path><path d="M46.3798 40.7597L46.3799 43.5698" stroke="#D23200" stroke-width="3" stroke-linecap="round"></path><path d="M7.62014 49.3655L7.62015 52.1756" stroke="#D23200" stroke-width="3" stroke-linecap="round"></path><path d="M46.3798 49.3655L46.3799 52.1756" stroke="#D23200" stroke-width="3" stroke-linecap="round"></path><path d="M4.98572 46.3799L2.00001 46.3799" stroke="#D23200" stroke-width="3" stroke-linecap="round"></path><path d="M43.7454 46.3799L40.7597 46.3799" stroke="#D23200" stroke-width="3" stroke-linecap="round"></path><path d="M13.2403 46.3799L10.2546 46.3799" stroke="#D23200" stroke-width="3" stroke-linecap="round"></path><path d="M52 46.3799L49.0143 46.3799" stroke="#D23200" stroke-width="3" stroke-linecap="round"></path><path d="M9.75196 44.2951L15.6129 38.4341" stroke="#D23200" stroke-width="3"></path><path d="M44.2951 44.2951L38.4341 38.4341" stroke="#D23200" stroke-width="3"></path><circle r="2.63445" transform="matrix(1 0 0 -1 7.62017 7.79579)" stroke="#D23200" stroke-width="3"></circle><circle r="2.63445" transform="matrix(1 0 0 -1 46.3798 7.79579)" stroke="#D23200" stroke-width="3"></circle><path d="M7.62014 13.416L7.62015 10.6059" stroke="#D23200" stroke-width="3" stroke-linecap="round"></path><path d="M46.3798 13.416L46.3799 10.6059" stroke="#D23200" stroke-width="3" stroke-linecap="round"></path><path d="M7.62014 4.81012L7.62015 2.00004" stroke="#D23200" stroke-width="3" stroke-linecap="round"></path><path d="M46.3798 4.81012L46.3799 2.00004" stroke="#D23200" stroke-width="3" stroke-linecap="round"></path><path d="M4.98572 7.79578L2.00001 7.79578" stroke="#D23200" stroke-width="3" stroke-linecap="round"></path><path d="M43.7454 7.79578L40.7597 7.79578" stroke="#D23200" stroke-width="3" stroke-linecap="round"></path><path d="M13.2403 7.79578L10.2546 7.79578" stroke="#D23200" stroke-width="3" stroke-linecap="round"></path><path d="M52 7.79578L49.0143 7.79578" stroke="#D23200" stroke-width="3" stroke-linecap="round"></path><path d="M9.75196 9.88055L15.6129 15.7415" stroke="#D23200" stroke-width="3"></path><path d="M44.2951 9.88055L38.4341 15.7415" stroke="#D23200" stroke-width="3"></path></svg> 